<?xml version="1.0" encoding="utf-8"?>
<!-- Generator: Adobe Illustrator 16.0.0, SVG Export Plug-In . SVG Version: 6.00 Build 0)  -->
<!DOCTYPE svg PUBLIC "-//W3C//DTD SVG 1.1//EN" "http://www.w3.org/Graphics/SVG/1.1/DTD/svg11.dtd">
<svg version="1.1" id="Layer_1" xmlns="http://www.w3.org/2000/svg" xmlns:xlink="http://www.w3.org/1999/xlink" x="0px" y="0px"
	 width="59.86px" height="57.685px" viewBox="0 0 59.86 57.685" enable-background="new 0 0 59.86 57.685" xml:space="preserve">
<g>
	<g>
		<polygon fill="#FFFFFF" points="3.076,2.391 57.392,2.38 57.392,56.218 3.084,56.218 		"/>
		<path fill="#2A9346" d="M57.392,56.659H3.084c-0.243,0-0.44-0.197-0.44-0.441L2.634,2.391c0-0.243,0.197-0.441,0.441-0.441
			l54.316-0.011c0.117,0,0.229,0.047,0.313,0.129c0.082,0.083,0.129,0.195,0.129,0.313v53.837
			C57.833,56.462,57.636,56.659,57.392,56.659z M3.526,55.776h53.425V2.822L3.516,2.833L3.526,55.776z"/>
	</g>
	<polygon fill="#2A9346" points="4.75,4.052 55.712,4.043 55.712,54.552 4.763,54.552 	"/>
	<g>
		<path fill="#FFFFFF" d="M51.674,8.692c-0.037-0.572-0.212-0.983-0.512-1.238c-0.35-0.297-0.744-0.26-0.759-0.256H10.73
			C9.381,7.31,9.025,8.438,9.022,8.45L9.02,8.46l3.646,41.453c0.227,1.469,1.692,1.598,1.707,1.598h9.619l-0.053,1.715l12.765,0.057
			l0.052-1.936l9.565,0.057c2.035-0.523,1.929-2.252,1.929-2.27L51.674,8.692z"/>
		<path fill="#FFFFFF" d="M36.705,53.724c-0.002,0-0.002,0-0.003,0l-12.765-0.057c-0.118,0-0.233-0.049-0.315-0.135
			s-0.127-0.201-0.123-0.32l0.038-1.26h-9.164c-0.365,0-1.894-0.352-2.144-1.971c-0.002-0.01-0.003-0.02-0.003-0.029L8.581,8.499
			c-0.004-0.048,0-0.096,0.011-0.143l0.002-0.007c0.074-0.318,0.628-1.468,2.101-1.591c0.011-0.001,0.024-0.001,0.036-0.001h39.648
			c0.024-0.003,0.054-0.004,0.09-0.004c0.166,0,0.593,0.035,0.98,0.364c0.396,0.336,0.62,0.856,0.666,1.545
			c0.001,0.022,0.001,0.045-0.001,0.066l-3.422,40.417c0.005,0.318-0.062,2.119-2.262,2.684c-0.036,0.01-0.075,0.014-0.112,0.014
			l-9.133-0.053l-0.04,1.504C37.139,53.532,36.943,53.724,36.705,53.724z M24.394,52.786l11.88,0.053l0.041-1.504
			c0.006-0.238,0.202-0.43,0.44-0.43c0.001,0,0.002,0,0.003,0l9.506,0.057c1.554-0.428,1.551-1.666,1.544-1.809
			c0-0.006,0-0.014,0-0.02c0-0.014,0.001-0.025,0.002-0.037l3.422-40.408c-0.032-0.425-0.151-0.727-0.354-0.898
			c-0.169-0.144-0.355-0.155-0.409-0.155c-0.004,0-0.007,0-0.009,0c-0.019,0.003-0.037,0.004-0.056,0.004H10.75
			c-0.864,0.079-1.195,0.682-1.281,0.88l3.635,41.341c0.169,1.043,1.159,1.193,1.291,1.209h9.598c0.12,0,0.234,0.049,0.317,0.135
			s0.128,0.201,0.124,0.32L24.394,52.786z"/>
	</g>
	<g>
		<path fill="#F48120" d="M16.477,11.558l24.958-0.003c0,0-6.507,2.795-11.766,9.731L16.506,21.29L16.477,11.558z"/>
		<path fill="#FFFFFF" d="M16.506,21.731c-0.243,0-0.44-0.196-0.44-0.44l-0.03-9.731c0-0.117,0.047-0.229,0.129-0.313
			c0.083-0.083,0.195-0.13,0.313-0.13l24.958-0.003c0.209,0,0.39,0.147,0.432,0.353c0.043,0.205-0.065,0.411-0.258,0.494
			c-0.064,0.028-6.468,2.838-11.588,9.593c-0.084,0.109-0.214,0.174-0.351,0.174L16.506,21.731L16.506,21.731z M16.919,11.999
			l0.026,8.851l12.506-0.004c2.718-3.535,5.746-5.966,7.822-7.39c0.898-0.615,1.694-1.098,2.333-1.459L16.919,11.999z"/>
	</g>
	<g>
		<path fill="#E60012" d="M45.325,11.116v10.613c0,0-6.52,2.21-8.289,9.174H26.752C26.752,30.903,29.963,16.755,45.325,11.116z"/>
		<path fill="#FFFFFF" d="M37.036,31.343H26.752c-0.135,0-0.262-0.061-0.345-0.166c-0.085-0.104-0.116-0.242-0.087-0.371
			c0.034-0.148,0.853-3.663,3.586-7.92c1.604-2.499,3.537-4.73,5.748-6.634c2.762-2.378,5.965-4.246,9.519-5.551
			c0.135-0.049,0.286-0.03,0.404,0.053c0.118,0.082,0.188,0.218,0.188,0.362v10.613c0,0.189-0.12,0.357-0.3,0.418
			c-0.016,0.005-1.604,0.556-3.38,1.927c-2.361,1.824-3.917,4.158-4.624,6.937C37.414,31.206,37.238,31.343,37.036,31.343z
			 M27.329,30.462h9.368c0.993-3.53,3.187-5.807,4.878-7.107c1.438-1.106,2.741-1.699,3.31-1.93v-9.672
			c-7.444,2.903-11.831,7.873-14.216,11.578C28.62,26.514,27.664,29.323,27.329,30.462z"/>
	</g>
	<g>
		<path fill="#E60012" d="M25.43,40.075h10.719c0,0-0.775,9.838-0.22,12.379H24.766C24.766,52.454,24.546,44.386,25.43,40.075z"/>
		<path fill="#FFFFFF" d="M35.93,52.896L35.93,52.896H24.766c-0.239,0-0.435-0.189-0.441-0.43
			c-0.009-0.332-0.211-8.168,0.674-12.479c0.042-0.205,0.223-0.354,0.432-0.354h10.719c0.122,0,0.24,0.053,0.324,0.143
			c0.083,0.09,0.124,0.211,0.115,0.334c-0.008,0.098-0.757,9.717-0.235,12.217c0.012,0.041,0.019,0.084,0.019,0.127
			C36.372,52.698,36.174,52.896,35.93,52.896z M25.198,52.013h10.213c-0.342-2.766,0.123-9.607,0.262-11.496h-9.878
			C25.117,44.216,25.169,50.347,25.198,52.013z"/>
	</g>
	<polygon fill="#2A9346" points="15.023,31.763 19.074,31.743 19.074,33.292 17.252,33.292 17.252,34.782 18.964,34.782 
		18.964,36.222 17.252,36.222 17.252,37.714 19.021,37.714 19.021,39.37 15.037,39.37 	"/>
	<polygon fill="#2A9346" points="24.604,31.757 28.635,31.757 28.635,33.278 26.812,33.278 26.812,34.749 28.526,34.749 
		28.526,36.161 26.812,36.161 26.812,37.628 28.58,37.628 28.58,39.259 24.604,39.259 	"/>
	<polygon fill="#2A9346" points="35.214,31.743 39.243,31.743 39.243,33.292 37.417,33.292 37.417,34.782 39.134,34.782 
		39.134,36.222 37.417,36.222 37.417,37.714 39.189,37.714 39.189,39.37 35.214,39.37 	"/>
	<polygon fill="#2A9346" points="20.162,31.804 22.279,31.804 22.279,37.714 23.772,37.714 23.772,39.315 20.174,39.315 	"/>
	<polygon fill="#2A9346" points="29.188,31.763 31.06,31.763 31.916,37.386 32.951,31.763 34.548,31.763 33.277,39.315 
		30.124,39.315 	"/>
	<path fill="#2A9346" d="M40.129,31.804h2.155v0.436c0,0,1.159-0.605,1.934-0.662c0,0,0.938-0.107,1.549,1.215v6.523h-2.103v-5.693
		c0,0-0.678-0.926-1.38,0.055v5.582h-2.155V31.804z"/>
	<path fill="#2A9346" d="M38.208,40.388c-0.711,0-1.291,0.564-1.291,1.246c0,0.334,0.133,0.646,0.38,0.877
		c0.242,0.238,0.566,0.365,0.911,0.365c0.347,0,0.674-0.127,0.915-0.365c0.243-0.23,0.378-0.543,0.378-0.877
		c0-0.328-0.135-0.641-0.378-0.871C38.882,40.519,38.555,40.388,38.208,40.388 M39.332,41.634c0,0.596-0.506,1.08-1.123,1.08
		c-0.295,0-0.582-0.111-0.791-0.316c-0.211-0.205-0.327-0.471-0.327-0.764c0-0.283,0.116-0.557,0.327-0.762
		c0.209-0.201,0.496-0.318,0.791-0.318c0.305,0,0.581,0.117,0.798,0.318C39.217,41.077,39.332,41.351,39.332,41.634z"/>
	<path fill="#2A9346" d="M38.855,42.353l-0.375-0.688c0.082-0.041,0.146-0.104,0.2-0.158c0.062-0.082,0.09-0.166,0.09-0.268
		c0-0.074-0.014-0.146-0.054-0.209c-0.031-0.066-0.084-0.123-0.146-0.162c-0.048-0.033-0.104-0.049-0.169-0.063
		c-0.071-0.016-0.182-0.025-0.319-0.025h-0.44v0.184l0.014,0.715v0.715l0,0c0,0.053,0.038,0.092,0.085,0.092
		c0.054,0,0.098-0.039,0.098-0.092v-0.715h0.01h0.436l0.402,0.758l0,0c0.027,0.043,0.08,0.064,0.12,0.043
		C38.855,42.454,38.874,42.397,38.855,42.353 M37.847,41.507v-0.543h0.308c0.122,0,0.225,0.018,0.281,0.066
		c0.063,0.047,0.093,0.115,0.093,0.209c0,0.086-0.029,0.152-0.093,0.195c-0.063,0.045-0.164,0.072-0.292,0.072H37.847z"/>
	<path fill="#FFFFFF" d="M51.674,8.692c-0.037-0.572-0.212-0.983-0.512-1.238c-0.35-0.297-0.744-0.26-0.759-0.256H10.73
		C9.381,7.31,9.025,8.438,9.022,8.45L9.02,8.46l3.646,41.453c0.227,1.469,1.692,1.598,1.707,1.598h9.619l-0.053,1.715l12.765,0.057
		l0.052-1.936l9.565,0.057c2.035-0.523,1.929-2.252,1.929-2.27L51.674,8.692z"/>
	<path fill="#F08300" d="M16.477,11.558l24.958-0.003c0,0-6.507,2.795-11.766,9.731L16.506,21.29L16.477,11.558z"/>
	<path fill="#E60012" d="M45.325,11.116v10.613c0,0-6.52,2.21-8.289,9.174H26.752C26.752,30.903,29.963,16.755,45.325,11.116z"/>
	<path fill="#E60012" d="M25.43,40.075h10.719c0,0-0.775,9.838-0.22,12.379H24.766C24.766,52.454,24.546,44.386,25.43,40.075z"/>
	<polygon fill="#2A9346" points="15.023,31.763 19.074,31.743 19.074,33.292 17.252,33.292 17.252,34.782 18.964,34.782 
		18.964,36.222 17.252,36.222 17.252,37.714 19.021,37.714 19.021,39.37 15.037,39.37 	"/>
	<polygon fill="#2A9346" points="24.604,31.757 28.635,31.757 28.635,33.278 26.812,33.278 26.812,34.749 28.526,34.749 
		28.526,36.161 26.812,36.161 26.812,37.628 28.58,37.628 28.58,39.259 24.604,39.259 	"/>
	<polygon fill="#2A9346" points="35.214,31.743 39.243,31.743 39.243,33.292 37.417,33.292 37.417,34.782 39.134,34.782 
		39.134,36.222 37.417,36.222 37.417,37.714 39.189,37.714 39.189,39.37 35.214,39.37 	"/>
	<polygon fill="#2A9346" points="20.162,31.804 22.279,31.804 22.279,37.714 23.772,37.714 23.772,39.315 20.174,39.315 	"/>
	<polygon fill="#2A9346" points="29.188,31.763 31.06,31.763 31.916,37.386 32.951,31.763 34.548,31.763 33.277,39.315 
		30.124,39.315 	"/>
	<path fill="#2A9346" d="M40.129,31.804h2.155v0.436c0,0,1.159-0.605,1.934-0.662c0,0,0.938-0.107,1.549,1.215v6.523h-2.103v-5.693
		c0,0-0.678-0.926-1.38,0.055v5.582h-2.155V31.804z"/>
	<path fill="#2A9346" d="M38.208,40.388c-0.711,0-1.291,0.564-1.291,1.246c0,0.334,0.133,0.646,0.38,0.877
		c0.242,0.238,0.566,0.365,0.911,0.365c0.347,0,0.674-0.127,0.915-0.365c0.243-0.23,0.378-0.543,0.378-0.877
		c0-0.328-0.135-0.641-0.378-0.871C38.882,40.519,38.555,40.388,38.208,40.388 M39.332,41.634c0,0.596-0.506,1.08-1.123,1.08
		c-0.295,0-0.582-0.111-0.791-0.316c-0.211-0.205-0.327-0.471-0.327-0.764c0-0.283,0.116-0.557,0.327-0.762
		c0.209-0.201,0.496-0.318,0.791-0.318c0.305,0,0.581,0.117,0.798,0.318C39.217,41.077,39.332,41.351,39.332,41.634z"/>
	<path fill="#2A9346" d="M38.855,42.353l-0.375-0.688c0.082-0.041,0.146-0.104,0.2-0.158c0.062-0.082,0.09-0.166,0.09-0.268
		c0-0.074-0.014-0.146-0.054-0.209c-0.031-0.066-0.084-0.123-0.146-0.162c-0.048-0.033-0.104-0.049-0.169-0.063
		c-0.071-0.016-0.182-0.025-0.319-0.025h-0.44v0.184l0.014,0.715v0.715l0,0c0,0.053,0.038,0.092,0.085,0.092
		c0.054,0,0.098-0.039,0.098-0.092v-0.715h0.01h0.436l0.402,0.758l0,0c0.027,0.043,0.08,0.064,0.12,0.043
		C38.855,42.454,38.874,42.397,38.855,42.353 M37.847,41.507v-0.543h0.308c0.122,0,0.225,0.018,0.281,0.066
		c0.063,0.047,0.093,0.115,0.093,0.209c0,0.086-0.029,0.152-0.093,0.195c-0.063,0.045-0.164,0.072-0.292,0.072H37.847z"/>
</g>
</svg>
