<?xml version="1.0" encoding="utf-8"?>
<!-- Generator: Adobe Illustrator 16.0.0, SVG Export Plug-In . SVG Version: 6.00 Build 0)  -->
<!DOCTYPE svg PUBLIC "-//W3C//DTD SVG 1.1//EN" "http://www.w3.org/Graphics/SVG/1.1/DTD/svg11.dtd">
<svg version="1.1" id="Layer_1" xmlns="http://www.w3.org/2000/svg" xmlns:xlink="http://www.w3.org/1999/xlink" x="0px" y="0px"
	 width="281px" height="38.291px" viewBox="0 0 281 38.291" enable-background="new 0 0 281 38.291" xml:space="preserve">
<g>
	<path fill="#F08300" d="M18.866,9.169H1.954V0.873H32.25h0.221c0,0-8.402,3.384-13.366,8.297H18.866z"/>
	<path fill="#E60012" d="M37.327,0.217v9.304c0,0-8.958,2.338-10.133,9.021c0,0-1.872,8.067-1.418,18.546H12.393
		c0,0-0.471-13.99,3.58-21.941C15.973,15.146,19.859,5.896,37.327,0.217z"/>
	<rect x="38.626" y="15.404" fill="#2A9346" width="16.192" height="6.567"/>
	<polygon fill="#2A9346" points="63.51,0.75 63.51,36.935 90.089,36.935 90.089,29.769 78.48,29.769 78.48,21.341 90.117,21.341 
		90.117,15.404 78.48,15.404 78.48,7.303 90.117,7.303 90.117,0.75 	"/>
	<polygon fill="#2A9346" points="125.444,0.75 125.444,36.935 152.035,36.935 152.035,29.769 140.405,29.769 140.405,21.341 
		152.053,21.341 152.053,15.404 140.405,15.404 140.405,7.303 152.053,7.303 152.053,0.75 	"/>
	<polygon fill="#2A9346" points="197.092,0.75 197.092,36.935 223.666,36.935 223.666,29.769 212.053,29.769 212.053,21.341 
		223.7,21.341 223.7,15.404 212.053,15.404 212.053,7.303 223.7,7.303 223.7,0.75 	"/>
	<polygon fill="#2A9346" points="95.921,0.75 95.921,36.935 121.666,36.935 121.666,29.769 110.473,29.769 110.473,0.75 	"/>
	<polygon fill="#2A9346" points="155.723,0.75 162.372,36.935 183.992,36.935 193.104,0.75 181.706,0.75 175.159,26.723 
		169.878,0.75 	"/>
	<path fill="#2A9346" d="M266.624,36.935V9.044c0,0,2.009-9.704-12.476-9.009c0,0-6.864,1.177-10.904,3.991V0.75h-13.996v36.184
		h14.133V13.609c0,0-0.137-4.439,3.903-4.788c4.05-0.346,4.992,1.163,4.845,3.273v24.84H266.624z"/>
	<path fill="#2A9346" d="M275.582,27.446c-2.995,0-5.424,2.437-5.424,5.438c0,1.447,0.573,2.797,1.583,3.818
		c1.032,1.021,2.372,1.589,3.841,1.589c1.447,0,2.791-0.567,3.841-1.589c1.004-1.021,1.577-2.371,1.577-3.818
		s-0.573-2.808-1.577-3.818C278.373,28.033,277.029,27.446,275.582,27.446 M280.279,32.884c0,2.582-2.115,4.703-4.697,4.703
		c-1.266,0-2.457-0.488-3.33-1.396c-0.868-0.885-1.361-2.054-1.361-3.308c0-1.243,0.493-2.457,1.361-3.341
		c0.873-0.874,2.064-1.373,3.33-1.373c1.254,0,2.434,0.499,3.313,1.373C279.792,30.427,280.279,31.641,280.279,32.884z"/>
	<path fill="#2A9346" d="M278.277,35.993l-1.578-2.995c0.357-0.176,0.619-0.448,0.84-0.681c0.256-0.357,0.387-0.726,0.387-1.163
		c0-0.329-0.063-0.635-0.238-0.896c-0.131-0.318-0.341-0.567-0.591-0.738c-0.198-0.142-0.465-0.215-0.72-0.261
		c-0.301-0.045-0.75-0.102-1.34-0.102h-1.838v0.783l0.034,3.131v3.121l0,0c0,0.232,0.176,0.391,0.352,0.391
		c0.244,0,0.42-0.159,0.42-0.391v-3.121h0.057h1.815l1.68,3.308l0,0c0.107,0.17,0.329,0.284,0.521,0.17
		C278.288,36.441,278.34,36.191,278.277,35.993 M274.062,32.316v-2.377h1.282c0.511,0,0.937,0.096,1.18,0.318
		c0.268,0.181,0.392,0.488,0.392,0.896c0,0.363-0.124,0.641-0.392,0.851c-0.271,0.193-0.686,0.312-1.219,0.312H274.062z"/>
</g>
</svg>
