<?xml version="1.0" encoding="utf-8"?>
<!-- Generator: Adobe Illustrator 16.0.0, SVG Export Plug-In . SVG Version: 6.00 Build 0)  -->
<!DOCTYPE svg PUBLIC "-//W3C//DTD SVG 1.1//EN" "http://www.w3.org/Graphics/SVG/1.1/DTD/svg11.dtd">
<svg version="1.1" id="Layer_1" xmlns="http://www.w3.org/2000/svg" xmlns:xlink="http://www.w3.org/1999/xlink" x="0px" y="0px"
	 width="111px" height="117px" viewBox="-21.57 -31.657 111 117" enable-background="new -21.57 -31.657 111 117"
	 xml:space="preserve">
<g>
	<g>
		<g>
			<g>
				<path fill="#FFFFFF" d="M32.388,6.611v-21.172c0-2.51-2.03-4.539-4.537-4.539h-34.79c-2.507,0-4.536,2.029-4.536,4.539V6.611
					c0,2.508,2.029,4.539,4.536,4.539h34.79C30.358,11.15,32.388,9.119,32.388,6.611z M-8.452-14.561
					c0-0.838,0.68-1.514,1.513-1.514h34.79c0.834,0,1.513,0.676,1.513,1.514v4.535H-8.452V-14.561z M-8.452,6.611V-7h37.815V6.611
					c0,0.838-0.679,1.516-1.513,1.516h-34.79C-7.772,8.127-8.452,7.449-8.452,6.611z"/>
				<rect x="9.7" y="44.427" fill="#FFFFFF" width="13.611" height="3.023"/>
				<rect x="9.7" y="50.478" fill="#FFFFFF" width="22.688" height="3.023"/>
				<rect x="9.7" y="38.377" fill="#FFFFFF" width="21.176" height="3.025"/>
				<rect x="15.749" y="32.326" fill="#FFFFFF" width="15.127" height="3.027"/>
				<rect x="9.7" y="26.279" fill="#FFFFFF" width="21.176" height="3.023"/>
				<rect x="9.7" y="20.224" fill="#FFFFFF" width="33.274" height="3.027"/>
				<rect x="15.749" y="14.176" fill="#FFFFFF" width="40.839" height="3.025"/>
				<path fill="#FFFFFF" d="M79.897,56.236l-12.586-12.58l-3.87-11.611l2.545-2.549c1.787-1.756,1.813-4.629,0.053-6.414
					c-1.757-1.789-4.628-1.811-6.416-0.053c-0.018,0.018-0.035,0.035-0.053,0.053l-2.547,2.547l-8.74-2.912
					c-0.378-0.129-0.798-0.098-1.153,0.08l-12.835,6.416c-0.515,0.26-0.839,0.787-0.837,1.363v8.555
					c0,0.836,0.676,1.512,1.514,1.512h4.906v2.141l-5.977,5.969c-0.212,0.211-0.355,0.479-0.412,0.771l-1.07,5.34
					c-0.167,0.818,0.359,1.617,1.178,1.785c0.201,0.045,0.408,0.045,0.607,0l5.35-1.066c0.29-0.061,0.561-0.205,0.771-0.416
					l4.277-4.275l7.489,7.486l12.832,12.834c0.592,0.59,1.55,0.59,2.14,0l12.835-12.834C80.488,57.785,80.488,56.826,79.897,56.236z
					 M61.707,25.217c0.594-0.59,1.553-0.59,2.143,0c0.592,0.594,0.592,1.551,0,2.143L53.153,38.054l-2.139-2.141L61.707,25.217z
					 M36.484,37.611v-6.109l11.437-5.719l6.711,2.236l-5.755,5.756l-1.069-1.068c-0.357-0.357-0.868-0.51-1.361-0.412l-5.351,1.066
					c-0.703,0.145-1.21,0.766-1.21,1.486v2.764H36.484L36.484,37.611z M35.829,53.238l0.426-2.131l1.709,1.703L35.829,53.238z
					 M40.317,50.89l-2.141-2.139l2.143-2.143l2.14,2.143L40.317,50.89z M42.901,44.916v-8.83l3.339-0.668l6.913,6.914
					c0.591,0.59,1.549,0.59,2.139,0c0.592-0.59,0.592-1.549,0-2.143l5.756-5.746l3.209,9.621L53.153,55.166L42.901,44.916z
					 M65.986,68.002L55.291,57.306l10.694-10.697l10.697,10.697L65.986,68.002z"/>
				<path fill="#FFFFFF" d="M55.076,68.627H3.65c0.984-1.307,1.515-2.9,1.512-4.535V12.664H2.139v51.428
					c0,2.504-2.033,4.535-4.539,4.535c-0.834,0-1.514,0.68-1.514,1.512c0,0.84,0.68,1.516,1.514,1.516h57.477
					c1.844,0,3.624-0.672,5.006-1.891l-2.005-2.27C57.249,68.226,56.183,68.631,55.076,68.627z"/>
				<path fill="#FFFFFF" d="M59.615-11.539v30.252h3.025v-28.738h10.585c0.837,0,1.514-0.676,1.514-1.514
					c-0.005-4.174-3.387-7.557-7.562-7.561H35.412v3.025h25.715C60.143-14.768,59.612-13.174,59.615-11.539z M67.178-16.074
					c1.921,0.002,3.637,1.213,4.279,3.023h-8.54C63.556-14.856,65.262-16.067,67.178-16.074z"/>
				<rect x="15.749" y="61.064" fill="#FFFFFF" width="31.765" height="3.027"/>
				<path fill="#FFFFFF" d="M56.588-11.539c0-0.834-0.676-1.512-1.512-1.512H39.951c-0.837,0-1.513,0.678-1.513,1.512V3.588
					c0,0.834,0.676,1.516,1.513,1.516h15.125c0.836,0,1.512-0.682,1.512-1.516V-11.539z M53.563,2.076H41.466v-12.102h12.097V2.076z
					"/>
			</g>
		</g>
	</g>
</g>
</svg>
