<?xml version="1.0" encoding="utf-8"?>
<!-- Generator: Adobe Illustrator 16.0.0, SVG Export Plug-In . SVG Version: 6.00 Build 0)  -->
<!DOCTYPE svg PUBLIC "-//W3C//DTD SVG 1.1//EN" "http://www.w3.org/Graphics/SVG/1.1/DTD/svg11.dtd">
<svg version="1.1" id="Layer_1" xmlns="http://www.w3.org/2000/svg" xmlns:xlink="http://www.w3.org/1999/xlink" x="0px" y="0px"
	 width="111px" height="117px" viewBox="-21.57 -31.657 111 117" enable-background="new -21.57 -31.657 111 117"
	 xml:space="preserve">
<g>
	<g>
		<g>
			<path fill="#FFFFFF" d="M75.136,0.574v-6.891L60.507-20.946H17.142V0.42H-5.751c-4.207,0-7.631,3.424-7.631,7.631v48.838
				c0,4.207,3.424,7.631,7.631,7.631h18.313v6.105H6.458v3.051H61.4v-3.051h-6.104v-6.105h18.314c4.207,0,7.631-3.424,7.631-7.631
				V8.051C81.241,4.367,78.615,1.285,75.136,0.574z M59.872-17.26l11.58,11.574h-11.58V-17.26z M20.195-17.895h36.627v15.264h15.262
				v48.834H20.195V-17.895z M52.245,70.625H15.615v-6.105h36.631V70.625z M78.191,56.888c0,2.525-2.059,4.578-4.58,4.578H-5.751
				c-2.523,0-4.58-2.053-4.58-4.578v-1.527h88.521V56.888z M78.191,52.31h-88.521V8.051c0-2.525,2.057-4.578,4.58-4.578h22.893
				v45.783h57.994V3.752c1.771,0.633,3.055,2.313,3.055,4.299V52.31z"/>
			<path fill="#FFFFFF" d="M14.089,17.207c0-5.887-4.795-10.682-10.684-10.682c-5.887,0-10.684,4.795-10.684,10.682
				c0,5.891,4.797,10.682,10.684,10.682C9.294,27.888,14.089,23.097,14.089,17.207z M4.931,14.156c0,0.842-0.682,1.525-1.525,1.525
				c-0.842,0-1.523-0.684-1.523-1.525c0-0.844,0.682-1.525,1.523-1.525C4.249,12.631,4.931,13.312,4.931,14.156z M3.406,24.836
				c-1.061,0-2.07-0.217-2.99-0.611c0.285-1.389,1.518-2.439,2.99-2.439s2.709,1.051,2.99,2.439
				C5.476,24.619,4.466,24.836,3.406,24.836z M3.406,18.732c-2.49,0-4.629,1.502-5.576,3.646c-1.264-1.363-2.055-3.172-2.055-5.172
				c0-3.893,2.941-7.076,6.709-7.539c-2.084,0.43-3.658,2.279-3.658,4.488C-1.175,16.681,0.882,18.732,3.406,18.732
				c2.525,0,4.58-2.051,4.58-4.576c0-2.209-1.572-4.059-3.656-4.488c3.768,0.463,6.707,3.646,6.707,7.539
				c0,2-0.791,3.809-2.055,5.172C8.036,20.234,5.898,18.732,3.406,18.732z"/>
			<path fill="#FFFFFF" d="M-7.278,38.572c0,5.893,4.797,10.684,10.684,10.684c5.889,0,10.684-4.791,10.684-10.684
				c0-5.887-4.795-10.684-10.684-10.684C-2.481,27.888-7.278,32.685-7.278,38.572z M3.406,46.203c-1.061,0-2.07-0.219-2.99-0.615
				c0.285-1.387,1.518-2.436,2.99-2.436s2.709,1.049,2.99,2.436C5.476,45.984,4.466,46.203,3.406,46.203z M4.931,35.521
				c0,0.844-0.682,1.527-1.525,1.527c-0.842,0-1.523-0.684-1.523-1.527c0-0.842,0.682-1.523,1.523-1.523
				C4.249,33.998,4.931,34.679,4.931,35.521z M2.484,31.035c-2.084,0.43-3.658,2.277-3.658,4.486c0,2.523,2.057,4.578,4.58,4.578
				c2.525,0,4.58-2.055,4.58-4.578c0-2.209-1.572-4.057-3.656-4.486c3.768,0.465,6.707,3.646,6.707,7.537
				c0,2-0.791,3.811-2.055,5.172c-0.945-2.145-3.084-3.645-5.576-3.645c-2.49,0-4.629,1.5-5.576,3.645
				c-1.264-1.361-2.055-3.172-2.055-5.172C-4.225,34.681-1.284,31.5,2.484,31.035z"/>
			<path fill="#FFFFFF" d="M41.562-8.867v-2.924H26.298V3.472h15.264v-8.59l5.465-3.904l-1.775-2.482L41.562-8.867z M38.509-6.69
				L35.62-4.625l-2.137-2.137l-2.156,2.156l3.963,3.967l3.219-2.297V0.42h-9.16v-9.158h9.16V-6.69z"/>
			<path fill="#FFFFFF" d="M41.562,9.445v-2.92H26.298v15.26h15.264v-8.588l5.465-3.904l-1.775-2.484L41.562,9.445z M38.509,11.625
				l-2.889,2.066l-2.137-2.141l-2.156,2.156l3.963,3.969l3.219-2.301v3.357h-9.16V9.576h9.16V11.625z"/>
			<path fill="#FFFFFF" d="M41.562,27.761v-2.926H26.298v15.264h15.264v-8.592l5.465-3.902l-1.775-2.48L41.562,27.761z
				 M38.509,29.941l-2.889,2.061l-2.137-2.137l-2.156,2.158l3.963,3.963l3.219-2.297v3.359h-9.16v-9.16h9.16V29.941z"/>
			<rect x="47.665" y="0.42" fill="#FFFFFF" width="18.313" height="3.053"/>
			<rect x="47.665" y="18.732" fill="#FFFFFF" width="18.313" height="3.053"/>
			<rect x="47.665" y="37.049" fill="#FFFFFF" width="18.313" height="3.051"/>
			<rect x="47.665" y="30.945" fill="#FFFFFF" width="18.313" height="3.053"/>
			<rect x="47.665" y="12.631" fill="#FFFFFF" width="18.313" height="3.051"/>
			<rect x="47.665" y="-5.686" fill="#FFFFFF" width="6.104" height="3.055"/>
		</g>
	</g>
</g>
</svg>
