<?xml version="1.0" encoding="utf-8"?>
<!-- Generator: Adobe Illustrator 16.0.0, SVG Export Plug-In . SVG Version: 6.00 Build 0)  -->
<!DOCTYPE svg PUBLIC "-//W3C//DTD SVG 1.1//EN" "http://www.w3.org/Graphics/SVG/1.1/DTD/svg11.dtd">
<svg version="1.1" id="Layer_1" xmlns="http://www.w3.org/2000/svg" xmlns:xlink="http://www.w3.org/1999/xlink" x="0px" y="0px"
	 width="111px" height="117px" viewBox="-21.57 -31.657 111 117" enable-background="new -21.57 -31.657 111 117"
	 xml:space="preserve">
<g>
	<g>
		<g>
			<g>
				<path fill="#FFFFFF" d="M86.093,16.655L66.691-2.746c-0.801-0.8-2.098-0.8-2.895,0c-0.802,0.798-0.802,2.095,0,2.895
					l17.952,17.957L71.251,28.602c-0.322,0.32-0.845,0.32-1.165,0L49.357,7.873c-0.322-0.322-0.322-0.846,0-1.167l7.044-7.043
					c0.801-0.799,0.801-2.099,0-2.898c-0.8-0.8-2.096-0.8-2.896,0l-7.045,7.043c-1.46,1.461-1.806,3.617-1.042,5.409l-2.385,2.384
					h-9.188h-0.723h-6.749l-3.006-3.008c0.116-0.42,0.176-0.858,0.176-1.308c0-1.314-0.512-2.55-1.44-3.477l-6.855-6.856
					c-0.799-0.801-2.096-0.801-2.897,0c-0.8,0.8-0.8,2.095,0,2.895l6.855,6.856c0.21,0.208,0.243,0.455,0.243,0.583
					s-0.033,0.374-0.243,0.583l-0.57,0.572L-1.53,28.598c-0.006,0.008-0.011,0.016-0.018,0.021c-0.205,0.191-0.436,0.221-0.56,0.221
					c-0.126,0-0.373-0.033-0.583-0.244l-10.496-10.498L5.01-0.094c0.798-0.801,0.798-2.095,0-2.896c-0.801-0.8-2.099-0.8-2.898,0
					l-19.644,19.644c-0.797,0.798-0.797,2.097,0,2.898l11.946,11.944c0.959,0.959,2.217,1.438,3.479,1.438
					c0.578,0,1.157-0.105,1.705-0.307l6.725,6.725C5.8,40.329,5.505,41.446,5.505,42.63c0,3.859,3.14,7,7,7c0.007,0,0.016,0,0.026,0
					l0,0c0,3.854,3.125,6.986,6.975,6.998c0,0.004,0,0.008,0,0.01c0,3.863,3.137,7.002,6.999,7.002c1.187,0,2.306-0.299,3.287-0.824
					l2.503,2.506c1.174,1.174,2.732,1.818,4.396,1.818c1.659,0,3.219-0.645,4.394-1.818c1.109-1.113,1.748-2.57,1.813-4.131
					c1.514-0.074,3.005-0.689,4.157-1.844c1.219-1.219,1.876-2.838,1.853-4.561c0-0.004,0-0.008,0-0.01
					c1.782-0.111,3.422-0.893,4.634-2.215c1.218-1.326,1.821-2.998,1.817-4.67c1.713-0.049,3.313-0.738,4.532-1.955
					c1.271-1.27,1.966-2.957,1.96-4.754c-0.003-1.057-0.252-2.074-0.714-2.992l6.717-6.143c0.842,0.588,1.828,0.891,2.816,0.891
					c1.261,0,2.52-0.482,3.478-1.439l11.945-11.948C86.892,18.753,86.892,17.456,86.093,16.655z M12.505,45.534
					c-1.602,0-2.904-1.303-2.904-2.902c0-1.604,1.302-2.908,2.904-2.908c1.601,0,2.903,1.305,2.903,2.908
					C15.408,44.231,14.106,45.534,12.505,45.534z M21.692,51.561c-0.081,0.078-0.163,0.158-0.242,0.242
					c-0.513,0.453-1.183,0.73-1.919,0.73c-1.601,0-2.903-1.303-2.903-2.904s1.303-2.902,2.903-2.902
					c1.604,0,2.905,1.301,2.905,2.902C22.435,50.372,22.152,51.048,21.692,51.561z M28.586,58.661
					c-0.01,0.01-0.019,0.018-0.028,0.027c-0.011,0.008-0.02,0.018-0.03,0.029c-0.523,0.512-1.238,0.826-2.024,0.826
					c-1.602,0-2.906-1.305-2.906-2.906c0-0.74,0.283-1.414,0.744-1.93c0.082-0.08,0.164-0.158,0.243-0.244
					c0.511-0.451,1.182-0.73,1.919-0.73c1.603,0,2.903,1.305,2.903,2.904C29.408,57.425,29.094,58.137,28.586,58.661z
					 M56.993,43.042c-0.488,0.488-1.14,0.758-1.834,0.758c-0.692,0-1.345-0.27-1.835-0.758l-4.255-4.258
					c-0.799-0.799-2.098-0.799-2.896,0c-0.8,0.801-0.8,2.098,0,2.898l4.256,4.256l0,0l0.012,0.01
					c1.056,1.059,1.093,2.746,0.083,3.846c-0.509,0.553-1.198,0.869-1.95,0.896c-0.748,0.029-1.464-0.242-2.008-0.758l-4.099-3.879
					c-0.819-0.775-2.114-0.742-2.893,0.078c-0.778,0.822-0.743,2.119,0.079,2.896l4.459,4.223c0.44,0.418,0.691,0.982,0.698,1.592
					c0.008,0.609-0.224,1.18-0.653,1.609c-0.869,0.871-2.286,0.869-3.158,0l-2.068-2.066c-0.8-0.801-2.095-0.801-2.897,0
					c-0.397,0.4-0.598,0.924-0.598,1.445c0,0.525,0.2,1.051,0.598,1.449l2.152,2.15c0.4,0.4,0.619,0.93,0.619,1.496
					s-0.219,1.098-0.619,1.498s-0.934,0.619-1.497,0.619c-0.567,0-1.097-0.219-1.498-0.619l-2.506-2.506
					c0.522-0.98,0.818-2.094,0.818-3.281c0-3.85-3.126-6.984-6.974-6.998c0-0.002,0-0.006,0-0.006c0-3.863-3.139-7.002-7-7.002
					c-0.009,0-0.017,0.002-0.024,0.002c0-0.002,0-0.002,0-0.002c0-3.861-3.144-7.002-7.002-7.002c-1.186,0-2.305,0.299-3.286,0.824
					L2.817,30.05l18.108-18.107l3.151,3.155c0.384,0.384,0.906,0.6,1.449,0.6h2.651l-8.084,8.085
					c-1.235,1.234-1.914,2.879-1.914,4.627s0.679,3.389,1.914,4.627c1.235,1.236,2.88,1.918,4.628,1.918s3.39-0.682,4.626-1.918
					l6.858-6.855l7.506,0.082l13.271,13.096c0.497,0.488,0.772,1.141,0.773,1.838C57.756,41.891,57.487,42.546,56.993,43.042z
					 M58.473,35.075l-12.475-12.31v-0.002l-0.019-0.018c-0.46-0.454-1.082-0.646-1.68-0.575l-8.913-0.098
					c-0.554-0.004-1.08,0.21-1.47,0.6l-7.467,7.467c-0.462,0.463-1.079,0.717-1.731,0.717c-0.654,0-1.269-0.254-1.731-0.717
					c-0.461-0.463-0.718-1.078-0.718-1.734c0-0.652,0.257-1.266,0.718-1.729l10.981-10.981h9.912c0.544,0,1.064-0.216,1.447-0.598
					l2.729-2.729l16.836,16.837L58.473,35.075z"/>
			</g>
		</g>
		<g>
			<g>
				<circle fill="#FFFFFF" cx="-3.259" cy="19.252" r="2.043"/>
			</g>
		</g>
		<g>
			<g>
				<path fill="#FFFFFF" d="M8.703-8.302c1.126,0,2.045,0.917,2.045,2.045c0,1.129-0.918,2.045-2.045,2.045
					c-1.13,0-2.043-0.917-2.043-2.045C6.66-7.386,7.573-8.302,8.703-8.302z"/>
			</g>
		</g>
		<g>
			<g>
				<circle fill="#FFFFFF" cx="59.823" cy="-6.422" r="2.043"/>
			</g>
		</g>
	</g>
</g>
</svg>
