<?xml version="1.0" encoding="utf-8"?>
<!-- Generator: Adobe Illustrator 16.0.0, SVG Export Plug-In . SVG Version: 6.00 Build 0)  -->
<!DOCTYPE svg PUBLIC "-//W3C//DTD SVG 1.1//EN" "http://www.w3.org/Graphics/SVG/1.1/DTD/svg11.dtd">
<svg version="1.1" id="Layer_1" xmlns="http://www.w3.org/2000/svg" xmlns:xlink="http://www.w3.org/1999/xlink" x="0px" y="0px"
	 width="111px" height="117px" viewBox="-21.57 -31.657 111 117" enable-background="new -21.57 -31.657 111 117"
	 xml:space="preserve">
<g>
	<g>
		<g>
			<g>
				<path fill="#FFFFFF" d="M75.814-11.6H44.039v-3.176c0-3.494-2.859-6.355-6.354-6.355H-6.8c-3.495,0-6.356,2.861-6.356,6.355
					v34.951c0,17.477,16.684,17.477,22.241,17.477c0.955,0,1.591-0.635,1.591-1.588c0-0.955-0.636-1.59-1.591-1.59
					c-3.495,0-6.354-2.859-6.354-6.355c0-0.156,0-0.477,0-0.633c0.478-3.338,3.337-5.723,6.674-5.723h21.924v3.18H17.03
					c-0.954,0-1.588,0.637-1.588,1.588c0,3.654,1.43,7.15,3.814,9.689c-0.478,1.592-0.638,3.021-0.638,4.609
					c0,6.355,3.813,12.072,9.534,14.617c0,0.953-0.478,2.859-4.769,2.859c-4.447,0-7.942,3.494-7.942,7.943v7.943h3.177V66.25
					c0-2.541,1.908-4.607,4.449-4.768l7.784,3.814c0.633,0.318,1.43,0.633,2.065,0.793v8.104h3.178V66.09
					c0.794-0.16,1.43-0.316,2.065-0.633l7.784-3.814c2.542,0.158,4.449,2.223,4.449,4.768v7.941h3.177V66.41
					c0-4.451-3.495-7.945-7.942-7.945c-4.289,0-4.767-1.906-4.767-2.857c6.035-2.545,9.691-8.582,9.532-15.094
					c0-0.318,0-0.955,0-1.113c0-2.225-0.479-4.449-1.59-6.355h10.646c3.337,0,6.196,2.383,6.673,5.719
					c0.317,3.496-2.224,6.672-5.721,6.992c-0.158,0-0.478,0-0.636,0c-0.952,0-1.588,0.635-1.588,1.588s0.636,1.588,1.588,1.588
					c5.563,0,22.246,0,22.246-17.475V-5.244C82.168-8.739,79.309-11.6,75.814-11.6z M9.405,18.588c-4.925,0-9.216,3.654-9.85,8.578
					c-0.16,2.385,0.478,4.768,1.907,6.672C-6.324,32.25-9.98,27.963-9.98,20.176v-34.951c0-1.748,1.432-3.18,3.181-3.18h44.485
					c1.746,0,3.176,1.432,3.176,3.18v30.184c0,1.75-1.43,3.18-3.176,3.18H9.405z M18.779,28.119h17.316
					c5.561,0,10.166,4.131,10.962,9.533H29.739C24.18,37.652,19.573,33.521,18.779,28.119z M38.796,52.746
					c-0.636,0.156-1.11,0.795-1.11,1.43v0.953c-0.161,2.225,1.11,4.449,3.176,5.402l-4.131,2.063c-1.43,0.637-3.176,0.637-4.607,0
					l-3.971-2.063c2.063-0.953,3.332-3.178,3.176-5.402v-0.795c0-0.635-0.477-1.271-1.112-1.432c-5.081-1.904-8.42-6.67-8.42-12.072
					c0-0.795,0-1.588,0.16-2.225c2.224,1.43,4.923,2.225,7.782,2.225h17.479C47.218,46.232,43.879,50.998,38.796,52.746z
					 M78.99,31.299c0,7.783-3.655,12.074-11.438,13.662c1.43-1.908,2.065-4.291,1.907-6.672c-0.636-4.928-4.767-8.58-9.854-8.58
					H46.74c-2.701-3.02-6.515-4.766-10.646-4.766h-1.588v-3.18h3.179c3.494,0,6.354-2.857,6.354-6.355V-8.42h31.774
					c1.746,0,3.176,1.43,3.176,3.176V31.299L78.99,31.299z"/>
			</g>
		</g>
		<g>
			<g>
				<path fill="#FFFFFF" d="M23.384-3.656h-1.588c-0.952,0-1.588-0.633-1.588-1.588v-4.764c0-2.703-2.065-4.768-4.767-4.768
					s-4.766,2.064-4.766,4.768v4.764c0,0.955-0.636,1.588-1.591,1.588c0-0.951-0.632-1.588-1.588-1.588H1.143
					c-0.954,0-1.588,0.637-1.588,1.588v17.479c0,0.953,0.634,1.586,1.588,1.586h6.354c0.956,0,1.588-0.633,1.588-1.586h14.299
					c2.703,0,4.769-2.066,4.769-4.768V1.111C28.153-1.59,26.087-3.656,23.384-3.656z M5.909,12.232H2.731V-2.065h3.179V12.232z
					 M24.975,9.054c0,0.953-0.636,1.592-1.591,1.592H9.085V-0.477c2.703,0,4.767-2.064,4.767-4.768v-4.764
					c0-0.957,0.638-1.592,1.59-1.592c0.955,0,1.588,0.635,1.588,1.592v4.764c0,2.703,2.067,4.768,4.767,4.768h1.588
					c0.955,0,1.591,0.635,1.591,1.588V9.054z"/>
			</g>
		</g>
		<g>
			<g>
				<path fill="#FFFFFF" d="M74.226-5.244h-6.356c-0.953,0-1.586,0.637-1.586,1.588H51.983c-2.701,0-4.765,2.066-4.765,4.768v7.943
					c0,2.701,2.063,4.768,4.765,4.768h1.588c0.954,0,1.59,0.635,1.59,1.586v4.768c0,2.703,2.065,4.768,4.764,4.768
					c2.703,0,4.769-2.064,4.769-4.768v-4.768c0-0.951,0.636-1.586,1.591-1.586c0,0.953,0.633,1.586,1.586,1.586h6.356
					c0.95,0,1.588-0.633,1.588-1.586V-3.656C75.814-4.608,75.176-5.244,74.226-5.244z M66.283,10.646
					c-2.705,0-4.769,2.063-4.769,4.762v4.768c0,0.955-0.638,1.588-1.591,1.588c-0.95,0-1.588-0.633-1.588-1.588v-4.768
					c0-2.699-2.065-4.762-4.766-4.762h-1.588c-0.955,0-1.589-0.639-1.589-1.592V1.111c0-0.953,0.634-1.588,1.589-1.588h14.301
					V10.646z M72.637,12.232h-3.178V-2.065h3.178V12.232z"/>
			</g>
		</g>
		<g>
			<g>
				<rect x="45.628" y="20.176" fill="#FFFFFF" width="6.354" height="3.18"/>
			</g>
		</g>
		<g>
			<g>
				<polygon fill="#FFFFFF" points="29.739,-13.188 29.739,-14.776 26.563,-14.776 26.563,-13.188 24.975,-13.188 24.975,-10.008 
					26.563,-10.008 26.563,-8.42 29.739,-8.42 29.739,-10.008 31.328,-10.008 31.328,-13.188 				"/>
			</g>
		</g>
	</g>
</g>
</svg>
