<?xml version="1.0" encoding="utf-8"?>
<!-- Generator: Adobe Illustrator 16.0.0, SVG Export Plug-In . SVG Version: 6.00 Build 0)  -->
<!DOCTYPE svg PUBLIC "-//W3C//DTD SVG 1.1//EN" "http://www.w3.org/Graphics/SVG/1.1/DTD/svg11.dtd">
<svg version="1.1" id="Layer_1" xmlns="http://www.w3.org/2000/svg" xmlns:xlink="http://www.w3.org/1999/xlink" x="0px" y="0px"
	 width="111px" height="117px" viewBox="-21.57 -31.657 111 117" enable-background="new -21.57 -31.657 111 117"
	 xml:space="preserve">
<g>
	<g>
		<g>
			<g>
				<path fill="#FFFFFF" d="M77.26,20.648L74.581,9.941c0.731-0.154,1.282-0.804,1.282-1.58V6.631c0-3.747-3.051-6.796-6.798-6.796
					H56.873v-3.56c0-1.845-1.501-3.344-3.344-3.344H-8.617c-1.845,0-3.345,1.499-3.345,3.344v29.348
					c0,0.895,0.725,1.618,1.619,1.618c0.895,0,1.618-0.724,1.618-1.618V-3.725c0-0.058,0.05-0.109,0.109-0.109H53.53
					c0.058,0,0.106,0.051,0.106,0.109v29.348c0,0.895,0.726,1.618,1.619,1.618c0.895,0,1.618-0.724,1.618-1.618v-1.834h19.092h0.004
					c0.001,0,0.003,0,0.003,0c2.353,0.001,4.345,1.544,5.03,3.668H75.97c-0.894,0-1.618,0.725-1.618,1.619v3.453
					c0,2.795,2.274,5.07,5.071,5.07h1.833v7.121h-4.23c-1.39-4.014-5.206-6.906-9.688-6.906c-4.48,0-8.294,2.893-9.686,6.906h-0.778
					V32.528c0-0.895-0.724-1.619-1.618-1.619s-1.619,0.725-1.619,1.619v12.191H20.058c-1.39-4.014-5.206-6.906-9.686-6.906
					c-4.482,0-8.296,2.893-9.688,6.906h-9.301c-0.059,0-0.109-0.049-0.109-0.107V41.05h7.014c0.894,0,1.62-0.723,1.62-1.617
					s-0.726-1.619-1.62-1.619h-15.537c-0.894,0-1.619,0.725-1.619,1.619s0.724,1.617,1.619,1.617h5.286v3.563
					c0,1.844,1.5,3.344,3.345,3.344h8.742c0,0.035-0.003,0.07-0.003,0.107c0,5.652,4.598,10.25,10.25,10.25
					c5.651,0,10.249-4.598,10.249-10.25c0-0.037-0.001-0.072-0.003-0.107h36.475c0,0.035-0.003,0.07-0.003,0.107
					c0,5.652,4.598,10.25,10.248,10.25c5.653,0,10.251-4.598,10.251-10.25c0-0.037-0.001-0.072-0.003-0.107h5.291
					c0.894,0,1.617-0.725,1.617-1.619V29.075C84.495,24.811,81.349,21.272,77.26,20.648z M56.873,3.072h12.192
					c1.963,0,3.56,1.599,3.56,3.56V6.74H56.873V3.072z M56.873,20.551V9.977h14.381l2.644,10.574H56.873L56.873,20.551z
					 M10.372,55.077c-3.867,0-7.014-3.146-7.014-7.012c0-3.867,3.147-7.016,7.014-7.016c3.866,0,7.012,3.148,7.012,7.016
					C17.384,51.93,14.238,55.077,10.372,55.077z M67.339,55.077c-3.867,0-7.014-3.146-7.014-7.012c0-3.867,3.146-7.016,7.014-7.016
					c3.866,0,7.014,3.148,7.014,7.016C74.353,51.93,71.205,55.077,67.339,55.077z M81.258,34.36h-1.835
					c-1.012,0-1.835-0.822-1.835-1.832v-1.836h3.67V34.36L81.258,34.36z"/>
			</g>
		</g>
		<g>
			<g>
				<path fill="#FFFFFF" d="M10.372,44.719c-1.845,0-3.345,1.502-3.345,3.346c0,1.842,1.5,3.344,3.345,3.344
					c1.844,0,3.344-1.502,3.344-3.344C13.716,46.221,12.216,44.719,10.372,44.719z"/>
			</g>
		</g>
		<g>
			<g>
				<path fill="#FFFFFF" d="M67.339,44.719c-1.844,0-3.344,1.502-3.344,3.346c0,1.842,1.5,3.344,3.344,3.344
					c1.845,0,3.344-1.502,3.344-3.344C70.683,46.221,69.184,44.719,67.339,44.719z"/>
			</g>
		</g>
		<g>
			<g>
				<path fill="#FFFFFF" d="M48.35,37.813H24.182c-0.894,0-1.619,0.727-1.619,1.621c0,0.893,0.725,1.615,1.619,1.615H48.35
					c0.894,0,1.618-0.723,1.618-1.615C49.968,38.54,49.243,37.813,48.35,37.813z"/>
			</g>
		</g>
		<g>
			<g>
				<path fill="#FFFFFF" d="M6.919,30.909h-20.715c-0.895,0-1.619,0.725-1.619,1.619c0,0.893,0.724,1.617,1.619,1.617H6.919
					c0.894,0,1.618-0.725,1.618-1.617C8.536,31.634,7.812,30.909,6.919,30.909z"/>
			</g>
		</g>
		<g>
			<g>
				<path fill="#FFFFFF" d="M37.41,8.941c-0.632-0.632-1.656-0.632-2.29,0L20.729,23.332l-7.487-7.486
					c-0.631-0.633-1.657-0.633-2.288,0c-0.633,0.631-0.633,1.655,0,2.288l8.632,8.633c0.313,0.316,0.729,0.474,1.143,0.474
					c0.415,0,0.829-0.157,1.145-0.474L37.41,11.229C38.042,10.597,38.042,9.573,37.41,8.941z"/>
			</g>
		</g>
	</g>
</g>
</svg>
