<?xml version="1.0" encoding="utf-8"?>
<!-- Generator: Adobe Illustrator 16.0.0, SVG Export Plug-In . SVG Version: 6.00 Build 0)  -->
<!DOCTYPE svg PUBLIC "-//W3C//DTD SVG 1.1//EN" "http://www.w3.org/Graphics/SVG/1.1/DTD/svg11.dtd">
<svg version="1.1" id="Layer_1" xmlns="http://www.w3.org/2000/svg" xmlns:xlink="http://www.w3.org/1999/xlink" x="0px" y="0px"
	 width="111px" height="117px" viewBox="-21.57 -31.657 111 117" enable-background="new -21.57 -31.657 111 117"
	 xml:space="preserve">
<g>
	<g>
		<path fill="#FFFFFF" d="M5.316,20.252c6.148-0.008,11.128-4.988,11.137-11.139V3.127c0.034-4.002-2.08-7.717-5.539-9.727
			c-3.461-2.01-7.732-2.01-11.192,0S-5.854-0.875-5.82,3.127v5.986C-5.81,15.261-0.831,20.244,5.316,20.252z M-2.837,3.127
			C-2.865,0.193-1.32-2.528,1.216-4.002c2.533-1.477,5.664-1.477,8.198,0c2.535,1.475,4.082,4.195,4.054,7.129v5.986
			c0.028,2.936-1.519,5.656-4.054,7.131c-2.534,1.477-5.665,1.477-8.198,0c-2.536-1.475-4.081-4.195-4.053-7.131V3.127z"/>
		<path fill="#FFFFFF" d="M16.945,22.002h-2.436c-0.666,0-1.253,0.443-1.435,1.088l-2.876,10.137l-1.93-3.443l1.738-5.547
			c0.142-0.453,0.059-0.945-0.221-1.33c-0.281-0.383-0.727-0.607-1.203-0.607H2.427c-0.474,0-0.924,0.225-1.201,0.607
			c-0.283,0.385-0.365,0.877-0.223,1.33l1.744,5.57l-1.63,3.15l-2.564-9.838C-1.618,22.463-2.213,22-2.891,22h-2.747
			c-3.239,0-6.33,1.367-8.512,3.766c-2.185,2.398-3.255,5.605-2.949,8.832V56c0,0.822,0.668,1.488,1.49,1.488h42.521
			c0.823,0,1.494-0.666,1.494-1.488V34.595c0.304-3.225-0.766-6.432-2.947-8.83C23.279,23.367,20.186,22,16.945,22V22.002z
			 M6.552,25.281L5.56,28.455H5.45l-0.995-3.174H6.552z M25.429,34.375c-0.006,0.051-0.007,0.098-0.007,0.148v19.98h-39.536v-19.98
			c0-0.049-0.004-0.098-0.009-0.148c-0.243-2.4,0.542-4.791,2.159-6.578c1.617-1.789,3.917-2.811,6.325-2.811h1.596l3.254,12.482
			c0.155,0.596,0.664,1.035,1.278,1.105c0.611,0.07,1.205-0.248,1.489-0.799l3.282-6.334h0.516l3.572,6.377
			c0.296,0.529,0.879,0.826,1.476,0.756c0.603-0.072,1.097-0.496,1.262-1.076l3.551-12.512h1.308c2.411,0,4.71,1.021,6.326,2.811
			C24.889,29.584,25.671,31.974,25.429,34.375z"/>
		<path fill="#FFFFFF" d="M66.462,32.133c0.581,0.584,1.525,0.584,2.11,0l2.081-2.084l2.083,2.084c0.582,0.584,1.529,0.584,2.111,0
			c0.581-0.582,0.581-1.527,0-2.109l-2.084-2.084l2.084-2.082c0.581-0.584,0.581-1.527,0-2.109c-0.582-0.584-1.529-0.584-2.111,0
			l-2.083,2.08l-2.081-2.08c-0.585-0.584-1.529-0.584-2.11,0c-0.583,0.582-0.583,1.525,0,2.109l2.082,2.082l-2.082,2.084
			C65.879,30.605,65.879,31.551,66.462,32.133z"/>
		<path fill="#FFFFFF" d="M67.953-2.035c0.558,0.605,1.5,0.645,2.104,0.09l6.797-6.227c0.608-0.559,0.65-1.502,0.095-2.109
			c-0.557-0.607-1.501-0.648-2.108-0.092l-5.701,5.221l-2.582-2.797c-0.56-0.605-1.502-0.645-2.11-0.086
			c-0.604,0.559-0.643,1.502-0.085,2.107L67.953-2.035z"/>
		<path fill="#FFFFFF" d="M67.953,66.166c0.558,0.605,1.5,0.643,2.104,0.086l6.798-6.227c0.61-0.557,0.649-1.5,0.094-2.109
			c-0.557-0.605-1.5-0.65-2.108-0.092l-5.701,5.225l-2.582-2.801c-0.56-0.605-1.502-0.645-2.11-0.084
			c-0.604,0.557-0.643,1.502-0.085,2.107L67.953,66.166z"/>
		<path fill="#FFFFFF" d="M55.357-5.028c0.604,8.16,7.509,14.408,15.688,14.201C79.224,8.965,85.8,2.371,85.99-5.809
			c0.191-8.178-6.073-15.068-14.232-15.656c-8.16-0.59-15.348,5.334-16.332,13.457h-7.617c-0.824,0-1.492,0.666-1.492,1.492v32.963
			H36.312l4.073-4.074c0.58-0.584,0.58-1.527,0-2.111c-0.582-0.582-1.53-0.582-2.113,0l-6.39,6.395
			c-0.583,0.584-0.583,1.525,0,2.109l6.39,6.395c0.583,0.582,1.531,0.582,2.113,0c0.58-0.582,0.58-1.527,0-2.109l-3.621-3.623h9.552
			v32.965c0,0.822,0.668,1.49,1.492,1.49h7.617c0.98,8.127,8.168,14.057,16.332,13.471c8.166-0.584,14.438-7.473,14.251-15.658
			c-0.184-8.184-6.761-14.785-14.948-14.996c-8.183-0.211-15.092,6.035-15.703,14.199h-6.056V29.427h6.083
			c0.796,8.146,7.844,14.23,16.018,13.832c8.172-0.396,14.598-7.141,14.598-15.322c0-8.184-6.426-14.928-14.598-15.324
			c-8.174-0.4-15.222,5.686-16.018,13.834h-6.083V-5.028H55.357z M70.654-18.52c6.826,0,12.363,5.533,12.363,12.361
			c0,6.824-5.537,12.359-12.363,12.359c-6.825,0-12.361-5.535-12.361-12.359C58.302-12.985,63.829-18.514,70.654-18.52z
			 M70.654,49.677c6.826,0,12.363,5.535,12.363,12.361S77.48,74.4,70.654,74.4c-6.825,0-12.361-5.535-12.361-12.361
			C58.302,55.213,63.829,49.685,70.654,49.677z M70.654,15.578c6.826,0,12.363,5.537,12.363,12.361
			c0,6.828-5.537,12.361-12.363,12.361c-6.825,0-12.361-5.533-12.361-12.361C58.302,21.115,63.829,15.586,70.654,15.578z"/>
	</g>
</g>
</svg>
