<?xml version="1.0" encoding="utf-8"?>
<!-- Generator: Adobe Illustrator 16.0.0, SVG Export Plug-In . SVG Version: 6.00 Build 0)  -->
<!DOCTYPE svg PUBLIC "-//W3C//DTD SVG 1.1//EN" "http://www.w3.org/Graphics/SVG/1.1/DTD/svg11.dtd">
<svg version="1.1" id="Layer_1" xmlns="http://www.w3.org/2000/svg" xmlns:xlink="http://www.w3.org/1999/xlink" x="0px" y="0px"
	 width="111px" height="117px" viewBox="-21.57 -31.657 111 117" enable-background="new -21.57 -31.657 111 117"
	 xml:space="preserve">
<g>
	<g>
		<g>
			<path fill="#FFFFFF" d="M25.986,38.488c2.46-2.358,3.998-5.673,3.998-9.343v-7.074c1.118-1.47,1.783-3.303,1.783-5.288V9.387
				c0-0.999-0.807-1.808-1.807-1.808H15.057c-6.045,0-10.968,4.919-10.968,10.966v10.6c0,3.67,1.538,6.984,3.999,9.343
				c-10.079,0.359-18.17,8.67-18.17,18.834v14.763c0,0.999,0.811,1.81,1.81,1.81h50.621c0.997,0,1.807-0.811,1.807-1.81V57.322
				C44.156,47.158,36.065,38.847,25.986,38.488z M15.057,11.197h13.094v5.586c0,2.834-2.303,5.14-5.135,5.14H7.707v-0.239v-3.138
				l0,0C7.707,14.492,11.005,11.197,15.057,11.197z M7.707,29.145v-3.609h15.309c1.187,0,2.319-0.238,3.354-0.667v4.276
				c0,5.144-4.188,9.33-9.332,9.33C11.892,38.475,7.707,34.289,7.707,29.145z M24.371,42.091l-7.069,11.983l-7.068-11.983H24.371z
				 M40.539,70.278L40.539,70.278h-4.068V57.632c0-0.999-0.811-1.809-1.81-1.809s-1.807,0.81-1.807,1.809v12.646H1.751V57.632
				c0-0.999-0.81-1.809-1.808-1.809c-1,0-1.81,0.81-1.81,1.809v12.646h-4.6V57.322c0-7.513,5.468-13.766,12.635-15.004l9.576,16.232
				c0.324,0.551,0.917,0.89,1.557,0.89c0.642,0,1.232-0.339,1.561-0.89l9.522-16.146c6.93,1.428,12.154,7.575,12.154,14.921V70.278z
				"/>
		</g>
	</g>
	<g>
		<g>
			<path fill="#FFFFFF" d="M69.042-18.69H58.817c-0.998,0-1.809,0.812-1.809,1.81s0.811,1.808,1.809,1.808h10.226
				c2.992,0,5.426,2.434,5.426,5.427v24.223c0,2.992-2.434,5.426-5.426,5.426h-6.591c-0.479,0-0.94,0.191-1.278,0.53L52.63,29.07
				v-7.259c0-0.999-0.81-1.809-1.808-1.809H35.409c-1,0-1.807,0.81-1.807,1.809s0.807,1.81,1.807,1.81h13.605v9.813
				c0,0.732,0.44,1.392,1.114,1.67c0.225,0.095,0.459,0.138,0.693,0.138c0.47,0,0.934-0.184,1.279-0.527L63.199,23.62h5.843
				c4.985,0,9.042-4.055,9.042-9.043V-9.646C78.084-14.631,74.028-18.69,69.042-18.69z"/>
		</g>
	</g>
	<g>
		<g>
			<path fill="#FFFFFF" d="M53.505-18.157c-0.338-0.335-0.802-0.532-1.278-0.532s-0.941,0.197-1.278,0.532
				c-0.338,0.336-0.531,0.802-0.531,1.277c0,0.477,0.193,0.942,0.531,1.278c0.337,0.337,0.802,0.529,1.278,0.529
				s0.94-0.192,1.278-0.529c0.336-0.336,0.528-0.802,0.528-1.278C54.033-17.356,53.841-17.822,53.505-18.157z"/>
		</g>
	</g>
	<g>
		<g>
			<path fill="#FFFFFF" d="M45.615-18.69H35.409c-4.985,0-9.04,4.059-9.04,9.044v10.03c0,0.998,0.807,1.809,1.807,1.809
				c0.999,0,1.808-0.811,1.808-1.809v-10.03c0-2.993,2.435-5.427,5.426-5.427h10.206c1.001,0,1.809-0.81,1.809-1.808
				S46.616-18.69,45.615-18.69z"/>
		</g>
	</g>
	<g>
		<g>
			<path fill="#FFFFFF" d="M28.604,58.539h-2.532c-0.996,0-1.807,0.81-1.807,1.81c0,0.998,0.811,1.806,1.807,1.806h2.532
				c1,0,1.809-0.808,1.809-1.806C30.412,59.348,29.604,58.539,28.604,58.539z"/>
		</g>
	</g>
	<g>
		<g>
			<path fill="#FFFFFF" d="M14.034,28.611c-0.337-0.336-0.801-0.531-1.277-0.531c-0.476,0-0.942,0.195-1.278,0.531
				c-0.335,0.335-0.529,0.803-0.529,1.278c0,0.473,0.194,0.939,0.529,1.277c0.336,0.337,0.803,0.529,1.278,0.529
				c0.477,0,0.94-0.192,1.277-0.529c0.339-0.338,0.531-0.805,0.531-1.277C14.566,29.414,14.373,28.946,14.034,28.611z"/>
		</g>
	</g>
	<g>
		<g>
			<path fill="#FFFFFF" d="M22.596,28.611c-0.337-0.336-0.803-0.531-1.277-0.531c-0.479,0-0.944,0.195-1.28,0.531
				c-0.338,0.335-0.527,0.8-0.527,1.278c0,0.473,0.189,0.939,0.527,1.277c0.336,0.337,0.804,0.529,1.28,0.529
				c0.475,0,0.94-0.192,1.277-0.529c0.338-0.338,0.527-0.805,0.527-1.277C23.123,29.414,22.934,28.946,22.596,28.611z"/>
		</g>
	</g>
	<g>
		<g>
			<path fill="#FFFFFF" d="M58.903-2.504c-0.229-3.31-2.897-5.979-6.207-6.208c-1.876-0.128-3.665,0.504-5.034,1.784
				c-1.353,1.263-2.128,3.045-2.128,4.893c0,0.999,0.808,1.81,1.808,1.81c0.999,0,1.809-0.811,1.809-1.81
				c0-0.863,0.346-1.659,0.978-2.25c0.631-0.586,1.453-0.879,2.322-0.818c1.517,0.104,2.738,1.329,2.845,2.846
				c0.106,1.536-0.898,2.891-2.391,3.224c-1.465,0.329-2.486,1.601-2.486,3.095v3.63c0,0.997,0.812,1.807,1.81,1.807
				c0.996,0,1.807-0.81,1.807-1.807V4.412C57.094,3.56,59.123,0.706,58.903-2.504z"/>
		</g>
	</g>
	<g>
		<g>
			<path fill="#FFFFFF" d="M53.505,12.385c-0.338-0.337-0.802-0.527-1.278-0.527s-0.941,0.19-1.278,0.527
				c-0.338,0.337-0.531,0.802-0.531,1.282c0,0.474,0.193,0.94,0.531,1.277c0.337,0.337,0.802,0.528,1.278,0.528
				s0.94-0.191,1.278-0.528c0.336-0.337,0.528-0.804,0.528-1.277C54.033,13.186,53.841,12.721,53.505,12.385z"/>
		</g>
	</g>
</g>
</svg>
