<?xml version="1.0" encoding="utf-8"?>
<!-- Generator: Adobe Illustrator 16.0.0, SVG Export Plug-In . SVG Version: 6.00 Build 0)  -->
<!DOCTYPE svg PUBLIC "-//W3C//DTD SVG 1.1//EN" "http://www.w3.org/Graphics/SVG/1.1/DTD/svg11.dtd">
<svg version="1.1" id="Layer_1" xmlns="http://www.w3.org/2000/svg" xmlns:xlink="http://www.w3.org/1999/xlink" x="0px" y="0px"
	 width="111px" height="117px" viewBox="-21.57 -31.657 111 117" enable-background="new -21.57 -31.657 111 117"
	 xml:space="preserve">
<g>
	<g>
		<g>
			<path fill="#FFFFFF" d="M25.626-3.986l-2.891-1.272c-0.131-0.484-0.273-0.945-0.432-1.388l1.605-2.767
				c0.291-0.505,0.297-1.127,0.014-1.639c-0.791-1.412-1.736-2.732-2.82-3.938c-0.396-0.45-1.014-0.647-1.602-0.511l-3.041,0.699
				c-0.354-0.284-0.725-0.558-1.109-0.82l-0.297-3.219c-0.053-0.59-0.416-1.104-0.951-1.352c-1.451-0.677-2.975-1.189-4.537-1.524
				c-0.592-0.125-1.203,0.084-1.596,0.54l-2.123,2.464H4.573l-2.121-2.464c-0.395-0.456-1.006-0.666-1.596-0.54
				c-1.564,0.335-3.088,0.848-4.539,1.524c-0.535,0.248-0.9,0.764-0.953,1.353l-0.293,3.218c-0.385,0.263-0.756,0.536-1.109,0.816
				L-9.079-15.5c-0.588-0.137-1.205,0.059-1.605,0.511c-1.084,1.206-2.025,2.526-2.818,3.938c-0.281,0.512-0.279,1.134,0.014,1.639
				l1.607,2.767c-0.16,0.442-0.303,0.903-0.434,1.388l-2.893,1.272c-0.598,0.265-0.984,0.859-0.984,1.516v4.501
				c0,0.657,0.387,1.25,0.984,1.514l2.893,1.277c0.131,0.483,0.273,0.944,0.434,1.387l-1.607,2.764
				c-0.293,0.508-0.295,1.132-0.014,1.639c0.793,1.414,1.734,2.735,2.818,3.94c0.402,0.45,1.018,0.646,1.605,0.51l3.041-0.697
				c0.354,0.283,0.723,0.558,1.109,0.819l0.293,3.218c0.053,0.59,0.418,1.104,0.953,1.351c1.451,0.68,2.973,1.191,4.537,1.523
				c0.592,0.126,1.203-0.082,1.596-0.54l2.123-2.463h1.271l2.125,2.463c0.314,0.365,0.771,0.578,1.258,0.578
				c0.111,0,0.225-0.013,0.338-0.038c1.563-0.332,3.086-0.844,4.537-1.523c0.535-0.247,0.898-0.761,0.951-1.351l0.297-3.218
				c0.381-0.262,0.754-0.536,1.109-0.819l3.041,0.697c0.586,0.137,1.201-0.059,1.602-0.51c1.084-1.205,2.027-2.526,2.818-3.94
				c0.285-0.51,0.279-1.131-0.012-1.639l-1.605-2.764c0.158-0.442,0.301-0.903,0.432-1.387l2.891-1.277
				c0.598-0.264,0.986-0.856,0.986-1.514v-4.499C26.613-3.126,26.228-3.721,25.626-3.986z M23.3,0.952l-2.643,1.164
				c-0.48,0.213-0.83,0.638-0.945,1.148c-0.188,0.839-0.443,1.659-0.77,2.457c-0.195,0.476-0.16,1.016,0.1,1.463L20.558,9.8
				c-0.396,0.627-0.83,1.23-1.299,1.807L16.4,10.952c-0.521-0.123-1.07,0.018-1.469,0.371c-0.633,0.561-1.314,1.061-2.031,1.506
				c-0.439,0.273-0.73,0.736-0.773,1.254l-0.283,3.039c-0.658,0.269-1.334,0.499-2.023,0.688l-1.957-2.273
				c-0.314-0.365-0.773-0.577-1.256-0.577H3.816c-0.484,0-0.939,0.212-1.258,0.577L0.599,17.81c-0.686-0.189-1.361-0.42-2.025-0.688
				l-0.277-3.04c-0.049-0.518-0.336-0.982-0.775-1.258c-0.719-0.44-1.4-0.94-2.031-1.501c-0.398-0.354-0.947-0.492-1.467-0.371
				l-2.863,0.654c-0.469-0.576-0.9-1.18-1.297-1.807l1.52-2.615c0.258-0.447,0.293-0.987,0.092-1.463
				c-0.32-0.798-0.578-1.618-0.764-2.457c-0.117-0.511-0.467-0.935-0.945-1.146l-2.645-1.167V-1.39l2.645-1.166
				c0.479-0.212,0.83-0.637,0.947-1.146c0.184-0.84,0.441-1.658,0.766-2.455c0.197-0.479,0.162-1.018-0.096-1.467l-1.52-2.611
				c0.396-0.628,0.828-1.233,1.297-1.812l2.863,0.655c0.52,0.124,1.068-0.017,1.467-0.371c0.631-0.555,1.313-1.059,2.031-1.504
				c0.443-0.273,0.73-0.739,0.775-1.254l0.279-3.04c0.662-0.269,1.338-0.498,2.023-0.687l1.959,2.272
				C2.876-15.61,3.331-15.4,3.816-15.4h2.791c0.482,0,0.939-0.21,1.256-0.575l1.957-2.272c0.689,0.188,1.365,0.418,2.027,0.687
				l0.279,3.041c0.045,0.519,0.334,0.982,0.775,1.255c0.719,0.443,1.396,0.946,2.029,1.502c0.398,0.354,0.947,0.495,1.469,0.371
				l2.859-0.655c0.469,0.578,0.902,1.184,1.299,1.812l-1.516,2.611c-0.26,0.445-0.295,0.988-0.1,1.464
				c0.326,0.798,0.582,1.618,0.77,2.458c0.115,0.51,0.465,0.935,0.945,1.146L23.3-1.39V0.952L23.3,0.952z"/>
		</g>
	</g>
	<g>
		<g>
			<path fill="#FFFFFF" d="M5.21-11.812c-6.404,0-11.594,5.19-11.594,11.594C-6.374,6.181-1.19,11.366,5.21,11.375
				c6.404,0,11.594-5.19,11.594-11.593C16.804-6.621,11.615-11.812,5.21-11.812z M5.21,8.063c-4.572,0-8.281-3.709-8.281-8.281
				C-3.065-4.79,0.64-8.494,5.21-8.5c4.574,0,8.281,3.708,8.281,8.282C13.491,4.354,9.784,8.063,5.21,8.063z"/>
		</g>
	</g>
	<g>
		<g>
			<path fill="#FFFFFF" d="M81.958-6.921l-2.285-1.01c-0.088-0.321-0.188-0.627-0.289-0.928l1.271-2.196
				c0.295-0.507,0.301-1.128,0.016-1.641c-0.672-1.192-1.471-2.31-2.385-3.33c-0.4-0.45-1.016-0.645-1.6-0.509l-2.41,0.55
				c-0.236-0.182-0.479-0.364-0.729-0.536l-0.232-2.552c-0.053-0.59-0.416-1.104-0.955-1.354c-1.227-0.571-2.516-1.005-3.84-1.289
				c-0.59-0.126-1.203,0.084-1.598,0.54l-1.682,1.959h-0.809l-1.688-1.959c-0.393-0.456-1.004-0.666-1.596-0.54
				c-1.324,0.284-2.613,0.718-3.838,1.289c-0.539,0.25-0.904,0.765-0.959,1.354l-0.23,2.552c-0.25,0.172-0.49,0.351-0.729,0.536
				l-2.406-0.55c-0.586-0.136-1.201,0.059-1.602,0.509c-0.916,1.021-1.715,2.138-2.385,3.332c-0.283,0.512-0.279,1.135,0.016,1.639
				l1.271,2.194c-0.104,0.301-0.201,0.611-0.291,0.93l-2.285,1.01c-0.602,0.262-0.988,0.86-0.988,1.515v3.749
				c0,0.655,0.387,1.25,0.988,1.515l2.285,1.009c0.09,0.32,0.188,0.629,0.291,0.928L49.015,3.99
				c-0.295,0.509-0.299,1.131-0.014,1.64c0.67,1.196,1.469,2.312,2.385,3.331c0.4,0.451,1.016,0.646,1.604,0.511l2.404-0.552
				c0.234,0.186,0.479,0.366,0.729,0.537l0.23,2.553c0.055,0.589,0.42,1.104,0.959,1.353c1.225,0.573,2.514,1.007,3.838,1.29
				c0.592,0.125,1.203-0.083,1.596-0.539l1.684-1.959h0.813l1.682,1.959c0.318,0.364,0.775,0.576,1.258,0.574
				c0.113,0,0.227-0.013,0.34-0.035c1.324-0.283,2.613-0.717,3.84-1.29c0.539-0.248,0.902-0.764,0.955-1.353l0.232-2.553
				c0.25-0.171,0.492-0.352,0.729-0.536l2.41,0.551c0.584,0.135,1.199-0.06,1.6-0.511c0.912-1.02,1.713-2.135,2.385-3.331
				c0.285-0.509,0.279-1.131-0.016-1.64l-1.271-2.196c0.102-0.299,0.201-0.607,0.289-0.925l2.285-1.012
				c0.602-0.265,0.99-0.859,0.99-1.515v-3.749C82.948-6.061,82.56-6.659,81.958-6.921z M79.636-2.734l-2.041,0.897
				c-0.479,0.21-0.83,0.637-0.947,1.148c-0.148,0.683-0.357,1.35-0.623,1.998c-0.197,0.476-0.16,1.019,0.098,1.465l1.18,2.034
				c-0.268,0.414-0.555,0.814-0.865,1.208L74.22,5.511c-0.521-0.124-1.066,0.017-1.463,0.371c-0.52,0.452-1.07,0.86-1.656,1.222
				c-0.441,0.273-0.73,0.737-0.781,1.257l-0.213,2.365c-0.445,0.174-0.891,0.326-1.336,0.454l-1.518-1.763
				c-0.313-0.365-0.771-0.575-1.256-0.577h-2.324c-0.48,0.002-0.939,0.212-1.254,0.577L60.9,11.18
				c-0.443-0.128-0.891-0.28-1.334-0.454l-0.215-2.365c-0.049-0.52-0.338-0.983-0.781-1.257c-0.582-0.358-1.135-0.77-1.65-1.222
				c-0.4-0.354-0.947-0.49-1.469-0.375l-2.217,0.509c-0.309-0.39-0.596-0.793-0.863-1.207l1.18-2.034
				c0.258-0.446,0.295-0.989,0.096-1.465c-0.266-0.648-0.475-1.315-0.623-1.998c-0.117-0.512-0.467-0.938-0.945-1.148l-2.041-0.897
				v-1.593l2.041-0.901c0.479-0.212,0.828-0.637,0.945-1.147c0.148-0.682,0.357-1.351,0.623-2.003
				c0.199-0.476,0.162-1.017-0.096-1.464l-1.178-2.03c0.266-0.412,0.553-0.819,0.861-1.209l2.219,0.508
				c0.52,0.121,1.066-0.02,1.465-0.37c0.516-0.454,1.07-0.862,1.652-1.223c0.443-0.274,0.732-0.739,0.781-1.26l0.215-2.363
				c0.443-0.175,0.891-0.326,1.334-0.454l1.52,1.762c0.314,0.366,0.773,0.576,1.254,0.576h2.324c0.484,0,0.943-0.21,1.256-0.576
				l1.518-1.762c0.445,0.128,0.891,0.279,1.336,0.454l0.213,2.363c0.051,0.521,0.338,0.985,0.781,1.26
				c0.586,0.36,1.137,0.769,1.656,1.223c0.396,0.353,0.941,0.491,1.463,0.37l2.217-0.508c0.311,0.39,0.598,0.794,0.865,1.211
				l-1.18,2.031c-0.258,0.447-0.295,0.99-0.098,1.465c0.266,0.648,0.475,1.317,0.623,1.999c0.117,0.511,0.469,0.936,0.947,1.147
				l2.041,0.901V-2.734z"/>
		</g>
	</g>
	<g>
		<g>
			<path fill="#FFFFFF" d="M64.837-11.812c-4.576,0-8.281,3.707-8.281,8.279c0.002,4.572,3.709,8.277,8.281,8.281
				c4.572,0,8.279-3.708,8.279-8.281C73.116-8.105,69.409-11.812,64.837-11.812z M64.837,1.437c-2.746,0-4.971-2.225-4.971-4.97
				c0.004-2.743,2.229-4.967,4.971-4.968c2.742,0,4.969,2.224,4.969,4.968C69.806-0.787,67.579,1.437,64.837,1.437z"/>
		</g>
	</g>
	<g>
		<g>
			<path fill="#FFFFFF" d="M81.55,48.336l-2.4-0.506c-0.1-0.414-0.209-0.829-0.336-1.24l1.842-1.652
				c0.529-0.472,0.697-1.229,0.42-1.882c-0.801-1.853-1.82-3.605-3.043-5.211c-0.426-0.565-1.166-0.798-1.842-0.578l-2.314,0.76
				c-0.293-0.312-0.6-0.617-0.912-0.911l0.76-2.314c0.223-0.674-0.008-1.411-0.574-1.837c-1.607-1.225-3.359-2.249-5.213-3.048
				c-0.652-0.275-1.41-0.106-1.883,0.419l-1.65,1.843c-0.414-0.125-0.828-0.239-1.244-0.335l-0.504-2.402
				c-0.162-0.767-0.836-1.315-1.621-1.315h-5.646c-0.785,0-1.459,0.549-1.619,1.315l-0.508,2.402
				c-0.412,0.096-0.83,0.21-1.242,0.335l-1.652-1.843c-0.475-0.525-1.23-0.694-1.879-0.419c-1.859,0.799-3.607,1.821-5.215,3.043
				c-0.564,0.428-0.797,1.167-0.576,1.839l0.758,2.317c-0.311,0.294-0.615,0.6-0.91,0.911l-2.313-0.76
				c-0.674-0.22-1.41,0.013-1.84,0.575c-1.223,1.608-2.244,3.359-3.045,5.214c-0.277,0.652-0.111,1.41,0.42,1.882l1.842,1.652
				c-0.129,0.411-0.238,0.826-0.338,1.24l-2.4,0.506c-0.766,0.163-1.314,0.839-1.316,1.623v5.646
				c0.002,0.784,0.549,1.459,1.316,1.621l2.4,0.505c0.1,0.414,0.209,0.832,0.334,1.243l-1.838,1.649
				c-0.531,0.473-0.697,1.231-0.42,1.883c0.801,1.854,1.818,3.604,3.041,5.211c0.43,0.566,1.168,0.797,1.842,0.578l2.314-0.761
				c0.295,0.313,0.6,0.618,0.91,0.913l-0.758,2.311c-0.223,0.674,0.008,1.413,0.576,1.842c1.605,1.224,3.355,2.247,5.215,3.044
				c0.648,0.28,1.408,0.113,1.879-0.419l1.652-1.842c0.412,0.128,0.826,0.238,1.24,0.337l0.506,2.399
				c0.164,0.769,0.838,1.314,1.623,1.317h5.646c0.785-0.003,1.459-0.549,1.621-1.317l0.504-2.399
				c0.416-0.099,0.83-0.209,1.244-0.335l1.65,1.84c0.473,0.532,1.23,0.699,1.883,0.419c1.854-0.797,3.604-1.819,5.211-3.042
				c0.566-0.426,0.799-1.165,0.576-1.839l-0.76-2.315c0.313-0.295,0.619-0.6,0.912-0.913l2.314,0.761
				c0.672,0.219,1.41-0.012,1.836-0.577c1.227-1.604,2.248-3.354,3.049-5.212c0.277-0.651,0.109-1.41-0.42-1.883l-1.842-1.649
				c0.127-0.411,0.236-0.829,0.336-1.243l2.4-0.505c0.764-0.162,1.314-0.837,1.314-1.621v-5.646
				C82.865,49.175,82.314,48.499,81.55,48.336z M79.552,54.26l-2.141,0.452c-0.66,0.139-1.17,0.662-1.291,1.324
				c-0.178,0.983-0.438,1.948-0.777,2.888c-0.229,0.637-0.051,1.345,0.455,1.794l1.734,1.558c-0.43,0.861-0.92,1.698-1.463,2.494
				L73.88,64.05c-0.637-0.208-1.344-0.01-1.779,0.502c-0.646,0.764-1.357,1.475-2.119,2.119c-0.516,0.439-0.713,1.143-0.502,1.783
				l0.719,2.188c-0.799,0.544-1.631,1.031-2.494,1.463l-1.557-1.736c-0.451-0.501-1.16-0.681-1.795-0.454
				c-0.939,0.339-1.902,0.599-2.885,0.777c-0.662,0.12-1.188,0.629-1.326,1.288l-0.451,2.145h-2.959l-0.451-2.145
				c-0.141-0.659-0.664-1.168-1.328-1.288c-0.982-0.179-1.947-0.438-2.885-0.777l0,0c-0.637-0.225-1.344-0.046-1.795,0.454
				l-1.557,1.736c-0.863-0.432-1.695-0.922-2.492-1.463l0.719-2.188c0.209-0.644,0.012-1.346-0.504-1.784
				c-0.764-0.646-1.473-1.354-2.121-2.119c-0.438-0.511-1.139-0.709-1.779-0.499l-2.188,0.719c-0.543-0.796-1.033-1.633-1.463-2.494
				l1.736-1.558c0.502-0.451,0.682-1.16,0.453-1.794c-0.338-0.939-0.6-1.906-0.775-2.888c-0.121-0.662-0.631-1.186-1.289-1.324
				l-2.145-0.452v-2.958l2.145-0.454c0.658-0.136,1.168-0.662,1.289-1.324c0.176-0.983,0.439-1.948,0.775-2.885
				c0.229-0.639,0.049-1.348-0.453-1.797l-1.736-1.556c0.43-0.863,0.92-1.695,1.463-2.493l2.189,0.72
				c0.641,0.209,1.344,0.009,1.779-0.505c0.648-0.764,1.357-1.474,2.121-2.119c0.514-0.438,0.711-1.141,0.502-1.78l-0.719-2.188
				c0.797-0.542,1.629-1.033,2.492-1.464l1.557,1.738c0.451,0.5,1.162,0.68,1.797,0.451c0.939-0.336,1.904-0.599,2.883-0.776
				c0.662-0.12,1.188-0.629,1.328-1.288l0.451-2.144h2.959l0.449,2.144c0.141,0.659,0.666,1.168,1.328,1.288
				c0.982,0.181,1.947,0.44,2.889,0.776c0.635,0.229,1.342,0.049,1.791-0.451l1.557-1.738c0.863,0.431,1.695,0.922,2.494,1.464
				L69.48,37.11c-0.211,0.641-0.014,1.346,0.502,1.783c0.766,0.645,1.475,1.352,2.121,2.119c0.439,0.51,1.141,0.707,1.781,0.501
				l2.186-0.721c0.543,0.799,1.033,1.631,1.463,2.494l-1.736,1.559c-0.504,0.449-0.682,1.16-0.453,1.794
				c0.34,0.939,0.6,1.904,0.777,2.885c0.121,0.662,0.631,1.188,1.291,1.324l2.141,0.454V54.26z"/>
		</g>
	</g>
	<g>
		<g>
			<path fill="#FFFFFF" d="M58.212,37.875c-8.234,0-14.908,6.676-14.908,14.907c0,8.23,6.674,14.906,14.908,14.906
				c8.229-0.009,14.895-6.677,14.904-14.906C73.116,44.551,66.443,37.875,58.212,37.875z M58.212,64.374
				c-6.402-0.007-11.588-5.191-11.594-11.592c0-6.405,5.191-11.596,11.594-11.596s11.594,5.19,11.594,11.596
				C69.806,59.184,64.615,64.374,58.212,64.374z"/>
		</g>
	</g>
	<g>
		<g>
			<rect x="30.056" y="-3.532" fill="#FFFFFF" width="13.248" height="3.314"/>
		</g>
	</g>
	<g>
		<g>
			<path fill="#FFFFFF" d="M29.921,50.473c-0.17-0.39-0.48-0.705-0.871-0.87l0,0l-11.592-4.97c-0.844-0.358-1.816,0.029-2.178,0.868
				c-0.086,0.206-0.133,0.43-0.133,0.654v3.313H-4.727v-26.5H-8.04v28.155c0,0.917,0.738,1.655,1.654,1.658h0.002h21.531v3.312
				c0,0.915,0.74,1.654,1.654,1.656h0.002c0.225,0,0.445-0.045,0.654-0.134l11.592-4.969C29.892,52.286,30.282,51.316,29.921,50.473
				z M18.458,53.582v-4.913l5.736,2.455L18.458,53.582z"/>
		</g>
	</g>
	<g>
		<g>
			<path fill="#FFFFFF" d="M63.564,46.751l-7.121,8.545l-3.686-3.684l-2.342,2.34l4.969,4.968c0.309,0.313,0.732,0.488,1.172,0.488
				c0.021,0,0.051,0,0.072-0.005c0.465-0.02,0.9-0.234,1.197-0.591l8.281-9.938L63.564,46.751z"/>
		</g>
	</g>
</g>
</svg>
